<?xml version="1.0" standalone="no"?>
<!DOCTYPE svg PUBLIC "-//W3C//DTD SVG 20010904//EN"
 "http://www.w3.org/TR/2001/REC-SVG-20010904/DTD/svg10.dtd">
<svg version="1.0" xmlns="http://www.w3.org/2000/svg"
 width="558.000000pt" height="558.000000pt" viewBox="0 0 558.000000 558.000000"
 preserveAspectRatio="xMidYMid meet">
<metadata>
Created by potrace 1.11, written by Peter Selinger 2001-2013
</metadata>
<g transform="translate(0.000000,558.000000) scale(0.100000,-0.100000)"
fill="#000000" stroke="none">
<path d="M4296 4829 c-26 -20 -26 -21 -26 -159 0 -119 3 -141 18 -161 23 -28
73 -30 102 -4 18 17 20 30 20 160 0 135 -1 143 -23 163 -29 28 -57 28 -91 1z"/>
<path d="M3943 4770 c-26 -10 -43 -39 -43 -72 0 -31 247 -278 277 -278 35 0
73 38 73 73 0 28 -17 49 -122 154 -68 66 -132 123 -143 126 -11 3 -30 2 -42
-3z"/>
<path d="M4690 4773 c-8 -3 -70 -60 -137 -126 -106 -105 -123 -126 -123 -154
0 -35 38 -73 73 -73 13 0 69 48 149 127 101 100 128 133 128 154 0 46 -50 86
-90 72z"/>
<path d="M4533 4400 c-47 -19 -56 -78 -18 -115 23 -24 30 -25 149 -25 73 0
136 5 150 11 51 23 50 105 0 128 -29 13 -248 14 -281 1z"/>
<path d="M3935 4030 l-280 -280 -85 84 c-92 90 -131 116 -180 116 -46 0 -66
-13 -161 -107 l-86 -85 -49 25 c-107 54 -241 103 -369 136 -263 66 -597 54
-861 -30 -482 -153 -845 -495 -1033 -972 -70 -178 -104 -368 -103 -582 3 -757
523 -1404 1262 -1571 441 -100 884 -15 1275 243 128 85 326 281 412 409 188
278 292 606 293 924 0 238 -61 504 -164 708 -20 39 -36 77 -36 84 0 7 39 51
86 99 135 136 134 178 -9 326 l-91 94 279 279 280 280 -50 50 -50 50 -280
-280z m-1965 -462 c53 -27 80 -73 80 -134 0 -69 -31 -101 -156 -167 -211 -110
-364 -262 -468 -467 -64 -125 -89 -151 -149 -157 -100 -12 -171 47 -171 141 0
108 162 367 328 524 122 115 303 231 421 268 56 18 65 17 115 -8z"/>
<path d="M4455 4225 c-48 -47 -37 -68 99 -204 108 -108 129 -124 157 -124 38
0 69 32 69 72 0 21 -27 54 -128 154 -138 136 -155 145 -197 102z"/>
</g>
</svg>
